# Blender v2.91.2 OBJ File: ''
# www.blender.org
mtllib testHouse.mtl
o Cube.001
v -8.000000 0.000000 10.023032
v -8.000000 12.000000 10.023032
v 8.000000 0.000000 10.023032
v 8.000000 12.000000 10.023032
v 7.709830 0.000000 9.623033
v 7.709830 11.725420 9.623033
v -7.635753 0.000000 9.623033
v -7.635753 11.725420 9.623033
v -8.000000 12.000000 -1.847024
v -8.000000 0.000000 -1.847024
v -7.635753 0.000000 -1.847024
v 8.000000 12.000000 -1.847024
v 8.000000 0.000000 -1.847024
v 7.709830 0.000000 -1.847024
v -8.000000 8.036619 10.023032
v 8.000000 8.036619 10.023032
v 7.709830 8.036619 9.623033
v -7.635753 8.036619 9.623033
v -8.000000 8.036619 -1.847024
v 8.000000 8.036619 -1.847024
v -8.000000 8.036619 -11.448350
v -8.000000 0.000000 -11.448350
v 8.000000 8.036619 -11.448350
v 8.000000 0.000000 -11.448350
v -7.635753 11.725420 -1.628647
v 7.709830 11.725420 -1.628647
v -7.635753 7.923366 -1.628647
v 7.709830 7.923366 -1.628647
v 0.037039 12.000000 10.023032
v 0.037038 0.000000 10.023032
v 0.037038 11.725420 9.623033
v 0.037039 0.000000 9.623033
v 0.037038 12.000000 -1.847024
v 0.037039 8.036619 10.023032
v 0.037038 8.036619 9.623033
v 0.037038 11.725420 -1.628647
v 0.037047 7.923366 -1.628647
v 0.036399 8.036619 -1.847024
v 0.038558 8.036619 -11.448350
v -7.635753 0.000000 -11.185980
v -7.635753 7.923366 -11.185980
v 7.709830 0.000000 -11.182467
v 7.709830 7.923366 -11.182467
v 2.507651 0.000000 -11.448350
v 0.038518 8.023298 -11.189619
v 2.507651 0.000000 -11.182467
v -2.507017 0.000000 -11.448350
v -2.507017 0.000000 -11.185980
v -8.000000 5.754360 10.023032
v 8.000000 5.754359 10.023032
v 7.709830 5.754359 9.623033
v -7.635753 5.754359 9.623033
v -8.000000 5.754359 -1.847024
v 8.000000 5.754359 -1.847024
v 7.709830 5.754359 -1.697041
v -7.635753 5.754360 -1.675925
v -8.000000 5.754359 -11.448350
v 8.000000 5.754359 -11.448350
v 0.037039 5.754359 10.023032
v 0.037038 5.754359 9.623033
v -7.635753 5.754360 -11.185980
v 7.709830 5.754359 -11.182467
v 2.507651 5.754359 -11.448350
v 2.507651 5.754359 -11.182467
v -2.507017 5.754359 -11.448350
v -2.507017 5.754360 -11.185980
v 0.037417 5.754359 -11.448350
v 0.037417 5.754359 -11.184223
vt 0.216760 0.007839
vt 0.215813 0.007051
vt 0.216912 0.007301
vt 0.215314 0.005876
vt 0.218622 0.001582
vt 0.217283 0.005997
vt 0.218699 0.000576
vt 0.218982 0.000305
vt 0.218780 0.000682
vt 0.219704 0.020841
vt 0.227196 0.027417
vt 0.219704 0.027417
vt 0.157554 0.178234
vt 0.158749 0.174797
vt 0.159492 0.177745
vt 0.228699 0.020529
vt 0.219704 0.020218
vt 0.219830 0.013640
vt 0.217979 0.007664
vt 0.168927 0.174345
vt 0.217813 0.008040
vt 0.218768 0.000650
vt 0.155709 0.180261
vt 0.219056 0.000771
vt 0.218014 0.000925
vt 0.155560 0.181895
vt 0.218011 0.000553
vt 0.218993 0.006942
vt 0.165248 0.174817
vt 0.217835 0.007323
vt 0.170862 0.174056
vt 0.172761 0.174343
vt 0.169905 0.174136
vt 0.163107 0.183669
vt 0.218521 0.000000
vt 0.161716 0.176588
vt 0.163591 0.176713
vt 0.156646 0.179186
vt 0.216110 0.006831
vt 0.170512 0.177521
vt 0.160966 0.177457
vt 0.219704 0.000852
vt 0.108329 0.979709
vt 0.043735 0.984546
vt 0.047845 0.975536
vt 0.217005 0.006972
vt 0.218774 0.000852
vt 0.108830 0.153736
vt 0.109222 0.152561
vt 0.167384 0.173212
vt 0.215759 0.007459
vt 0.219953 0.034904
vt 0.226528 0.042397
vt 0.219704 0.042397
vt 0.219574 0.001329
vt 0.219888 0.129759
vt 0.224232 0.122347
vt 0.224232 0.129834
vt 0.219704 0.048973
vt 0.227191 0.042397
vt 0.227191 0.049221
vt 0.153760 0.181089
vt 0.154461 0.177325
vt 0.173195 0.171469
vt 0.220341 0.085748
vt 0.219704 0.085742
vt 0.220341 0.049221
vt 0.166970 0.174379
vt 0.168875 0.171384
vt 0.220016 0.034904
vt 0.226591 0.027417
vt 0.226591 0.034904
vt 0.016717 0.987517
vt 0.137040 0.178248
vt 0.228822 0.006728
vt 0.188880 0.176746
vt 0.228822 0.013308
vt 0.107078 0.155281
vt 0.106359 0.156610
vt 0.106825 0.155508
vt 0.108739 0.154127
vt 0.108435 0.155104
vt 0.034134 0.972639
vt 0.030496 0.986467
vt 0.021603 0.986315
vt 0.029495 0.992269
vt 0.044208 0.988344
vt 0.031732 0.996246
vt 0.031124 0.986866
vt 0.108124 0.154726
vt 0.107074 0.154602
vt 0.108052 0.154061
vt 0.107420 0.154716
vt 0.107865 0.153613
vt 0.107376 0.154764
vt 0.106967 0.154330
vt 0.107845 0.153896
vt 0.027525 1.000000
vt 0.036371 0.978926
vt 0.161559 0.183570
vt 0.219889 0.129849
vt 0.228758 0.132442
vt 0.219704 0.132442
vt 0.048079 0.990016
vt 0.106582 0.154387
vt 0.228699 0.013640
vt 0.227196 0.020529
vt 0.156811 0.175286
vt 0.226528 0.034904
vt 0.219704 0.122268
vt 0.219704 0.042397
vt 0.152513 0.178153
vt 0.171296 0.171182
vt 0.219704 0.122268
vt 0.166919 0.171418
vt 0.219704 0.027417
vt 0.000000 0.984676
vt 0.219959 0.013640
vt 0.219704 0.006822
vt 0.159027 0.178847
vt 0.228758 0.129834
vn 0.0000 0.0000 -1.0000
vn 0.0000 -1.0000 0.0000
vn 0.0000 0.0000 1.0000
vn 0.0000 -0.6225 -0.7827
vn -0.0117 0.9121 0.4099
vn 1.0000 0.0000 0.0000
vn -1.0000 0.0000 0.0000
vn 0.0000 1.0000 0.0000
vn 0.0130 -0.9999 -0.0104
vn -1.0000 -0.0000 0.0030
vn 0.0000 -0.8877 -0.4604
vn -1.0000 -0.0061 -0.0002
vn -0.0130 -0.9999 -0.0105
vn 0.0005 0.0011 1.0000
vn -1.0000 0.0005 0.0000
vn -0.0007 0.0024 1.0000
vn 0.0000 0.9987 0.0514
vn -0.0009 0.0022 1.0000
vn -1.0000 0.0002 0.0002
vn -1.0000 -0.0014 -0.0002
vn 0.0000 -0.9987 -0.0514
vn -0.0115 -0.9153 -0.4025
vn -1.0000 0.0005 -0.0001
usemtl None
s off
f 31/1/1 17/2/1 35/3/1
f 5/4/2 30/5/2 32/6/2
f 29/7/3 15/8/3 34/9/3
f 25/10/4 33/11/4 36/12/4
f 9/13/1 38/14/1 19/15/1
f 21/16/5 41/17/5 45/18/5
f 18/19/6 25/20/6 8/21/6
f 16/22/6 12/23/6 4/24/6
f 3/25/6 54/26/6 50/27/6
f 7/28/6 56/29/6 52/30/6
f 17/2/7 26/31/7 28/32/7
f 8/21/2 36/33/2 31/1/2
f 5/4/2 13/34/2 3/25/2
f 2/35/7 19/15/7 15/8/7
f 7/28/2 10/36/2 11/37/2
f 4/24/8 33/38/8 29/7/8
f 51/39/7 28/32/7 55/40/7
f 15/8/7 53/41/7 49/42/7
f 43/43/3 64/44/3 62/45/3
f 35/3/1 51/39/1 60/46/1
f 34/9/3 49/42/3 59/47/3
f 41/48/9 45/49/9 37/50/9
f 16/22/3 59/47/3 50/27/3
f 18/19/1 60/46/1 52/30/1
f 29/7/8 9/13/8 2/35/8
f 31/1/2 26/31/2 6/51/2
f 26/52/4 33/53/4 12/54/4
f 4/24/3 34/9/3 16/22/3
f 7/28/2 30/5/2 1/55/2
f 8/21/1 35/3/1 18/19/1
f 36/56/10 38/57/10 37/58/10
f 28/59/11 38/60/11 20/61/11
f 20/62/1 33/63/1 12/23/1
f 26/31/3 37/64/3 28/32/3
f 38/65/12 45/66/12 37/67/12
f 27/68/3 36/69/3 25/20/3
f 27/70/11 38/71/11 37/72/11
f 23/73/8 38/74/8 20/62/8
f 43/75/13 37/76/13 45/77/13
f 19/15/7 57/78/7 53/41/7
f 19/15/8 39/79/8 21/80/8
f 11/37/6 61/81/6 56/29/6
f 10/36/2 40/82/2 11/37/2
f 55/40/7 43/43/7 62/45/7
f 13/34/2 42/83/2 24/84/2
f 13/34/6 58/85/6 54/26/6
f 63/86/2 68/87/2 67/88/2
f 42/83/2 44/89/2 24/84/2
f 24/84/1 63/86/1 58/85/1
f 48/90/6 65/91/6 66/92/6
f 40/82/2 47/93/2 48/90/2
f 21/80/1 65/91/1 57/78/1
f 40/82/3 66/92/3 61/81/3
f 41/48/14 66/92/14 45/94/14
f 57/78/1 47/93/1 22/95/1
f 66/92/2 67/96/2 68/97/2
f 23/73/1 63/86/1 39/98/1
f 64/44/7 44/89/7 46/99/7
f 54/26/6 23/73/6 20/62/6
f 14/100/7 62/45/7 42/83/7
f 56/29/6 41/48/6 27/68/6
f 53/41/7 22/95/7 10/36/7
f 52/30/1 32/6/1 7/28/1
f 50/27/3 30/5/3 3/25/3
f 59/47/3 1/55/3 30/5/3
f 60/46/1 5/4/1 32/6/1
f 62/45/3 46/99/3 42/83/3
f 49/42/7 10/36/7 1/55/7
f 5/4/7 55/40/7 14/100/7
f 52/30/6 27/68/6 18/19/6
f 50/27/6 20/62/6 16/22/6
f 45/101/15 67/102/15 68/103/15
f 39/98/1 63/86/1 67/88/1
f 64/44/16 45/104/16 68/87/16
f 45/94/16 66/92/16 68/97/16
f 65/91/1 39/105/1 67/96/1
f 45/18/17 39/106/17 21/16/17
f 31/1/1 6/51/1 17/2/1
f 5/4/2 3/25/2 30/5/2
f 29/7/3 2/35/3 15/8/3
f 25/10/4 9/107/4 33/11/4
f 9/13/1 33/108/1 38/14/1
f 18/19/6 27/68/6 25/20/6
f 16/22/6 20/62/6 12/23/6
f 3/25/6 13/34/6 54/26/6
f 7/28/6 11/37/6 56/29/6
f 17/2/7 6/51/7 26/31/7
f 8/21/2 25/20/2 36/33/2
f 5/4/2 14/100/2 13/34/2
f 2/35/7 9/13/7 19/15/7
f 7/28/2 1/55/2 10/36/2
f 4/24/8 12/23/8 33/38/8
f 51/39/7 17/2/7 28/32/7
f 15/8/7 19/15/7 53/41/7
f 43/43/18 45/104/18 64/44/18
f 35/3/1 17/2/1 51/39/1
f 34/9/3 15/8/3 49/42/3
f 37/50/2 27/68/2 41/48/2
f 16/22/3 34/9/3 59/47/3
f 18/19/1 35/3/1 60/46/1
f 29/7/8 33/38/8 9/13/8
f 31/1/2 36/33/2 26/31/2
f 26/52/4 36/109/4 33/53/4
f 4/24/3 29/7/3 34/9/3
f 7/28/2 32/6/2 30/5/2
f 8/21/1 31/1/1 35/3/1
f 36/56/19 33/110/19 38/57/19
f 28/59/11 37/111/11 38/60/11
f 20/62/1 38/112/1 33/63/1
f 26/31/3 36/113/3 37/64/3
f 38/65/20 39/114/20 45/66/20
f 27/68/3 37/115/3 36/69/3
f 27/70/11 19/116/11 38/71/11
f 23/73/8 39/117/8 38/74/8
f 39/118/21 23/119/21 45/77/21
f 23/119/22 43/75/22 45/77/22
f 43/75/2 28/32/2 37/76/2
f 19/15/7 21/80/7 57/78/7
f 19/15/8 38/120/8 39/79/8
f 11/37/6 40/82/6 61/81/6
f 10/36/2 22/95/2 40/82/2
f 55/40/7 28/32/7 43/43/7
f 13/34/2 14/100/2 42/83/2
f 13/34/6 24/84/6 58/85/6
f 63/86/2 64/44/2 68/87/2
f 42/83/2 46/99/2 44/89/2
f 24/84/1 44/89/1 63/86/1
f 48/90/6 47/93/6 65/91/6
f 40/82/2 22/95/2 47/93/2
f 21/80/1 39/105/1 65/91/1
f 40/82/3 48/90/3 66/92/3
f 41/48/3 61/81/3 66/92/3
f 57/78/1 65/91/1 47/93/1
f 66/92/2 65/91/2 67/96/2
f 23/73/1 58/85/1 63/86/1
f 64/44/7 63/86/7 44/89/7
f 54/26/6 58/85/6 23/73/6
f 14/100/7 55/40/7 62/45/7
f 56/29/6 61/81/6 41/48/6
f 53/41/7 57/78/7 22/95/7
f 52/30/1 60/46/1 32/6/1
f 50/27/3 59/47/3 30/5/3
f 59/47/3 49/42/3 1/55/3
f 60/46/1 51/39/1 5/4/1
f 62/45/3 64/44/3 46/99/3
f 49/42/7 53/41/7 10/36/7
f 5/4/7 51/39/7 55/40/7
f 52/30/6 56/29/6 27/68/6
f 50/27/6 54/26/6 20/62/6
f 45/101/23 39/121/23 67/102/23
